name C:\Users\u0101727\Documents\MyRepositories\upper-imu-dc\Results\main_tracking\Case_45\kinematics_filtered.mot
datacolumns 10
datarows 33
range 5.00000000 5.19200000
endheader 
time	clav_prot	clav_elev	scapula_abduction	scapula_elevation	scapula_upward_rot	scapula_winging	plane_elv	shoulder_elv	axial_rot	
          5.00000000	        -23.65348624	          2.12394871	         -0.64375832	         -4.16432674	         35.69812367	         -1.94603918	         68.73024492	         46.19100948	        -22.88527372	
          5.00600000	        -23.57554299	          2.01222416	         -0.75310388	         -4.18298987	         35.33594546	         -1.84035418	         68.59129298	         45.95212128	        -22.76572694	
          5.01200000	        -23.50370861	          1.90065824	         -0.87002982	         -4.20179793	         34.97696465	         -1.73483119	         68.44784033	         45.71488598	        -22.64893898	
          5.01800000	        -23.43909486	          1.78928779	         -0.99636304	         -4.22084129	         34.62137068	         -1.62952706	         68.29992241	         45.47924179	        -22.53491515	
          5.02400000	        -23.38271714	          1.67814116	         -1.13376090	         -4.24021127	         34.26935090	         -1.52449272	         68.14756815	         45.24512113	        -22.42363083	
          5.03000000	        -23.33542279	          1.56723414	         -1.28358696	         -4.25999817	         33.92108690	         -1.41977217	         67.99080154	         45.01245055	        -22.31502806	
          5.03600000	        -23.29781970	          1.45656662	         -1.44678764	         -4.28028884	         33.57675066	         -1.31540202	         67.82964332	         44.78115071	        -22.20901198	
          5.04200000	        -23.27021546	          1.34612059	         -1.62378792	         -4.30116371	         33.23650050	         -1.21141148	         67.66411292	         44.55113642	        -22.10544718	
          5.04800000	        -23.25257911	          1.23586035	         -1.81442741	         -4.32269376	         32.90047714	         -1.10782283	         67.49423051	         44.32231679	        -22.00415419	
          5.05400000	        -23.24453550	          1.12573529	         -2.01795449	         -4.34493724	         32.56879991	         -1.00465234	         67.32001897	         44.09459538	        -21.90490631	
          5.06000000	        -23.24539577	          1.01568537	         -2.23308423	         -4.36793683	         32.24156324	         -0.90191148	         67.14150564	         43.86787042	        -21.80742684	
          5.06600000	        -23.25421783	          0.90564823	         -2.45810920	         -4.39171718	         31.91883366	         -0.79960824	         66.95872387	         43.64203512	        -21.71138703	
          5.07200000	        -23.26988489	          0.79556711	         -2.69104148	         -4.41628321	         31.60064743	         -0.69774834	         66.77171410	         43.41697798	        -21.61640495	
          5.07800000	        -23.29118839	          0.68539799	         -2.92976142	         -4.44161918	         31.28700875	         -0.59633633	         66.58052445	         43.19258318	        -21.52204540	
          5.08400000	        -23.31690475	          0.57511544	         -3.17215468	         -4.46768851	         30.97788886	         -0.49537639	         66.38521076	         42.96873107	        -21.42782096	
          5.09000000	        -23.34585990	          0.46471665	         -3.41622619	         -4.49443439	         30.67322579	         -0.39487283	         66.18583607	         42.74529879	        -21.33319444	
          5.09600000	        -23.37697862	          0.35422351	         -3.66018660	         -4.52178098	         30.37292485	         -0.29483040	         65.98246968	         42.52216095	        -21.23758253	
          5.10200000	        -23.40931873	          0.24368293	         -3.90251076	         -4.54963515	         30.07685983	         -0.19525429	         65.77518555	         42.29919051	        -21.14036087	
          5.10800000	        -23.44209115	          0.13316569	         -4.14197070	         -4.57788872	         29.78487485	         -0.09614992	         65.56406047	         42.07625980	        -21.04087021	
          5.11400000	        -23.47466793	          0.02276399	         -4.37764656	         -4.60642086	         29.49678669	          0.00247734	         65.34917179	         41.85324164	        -20.93842376	
          5.12000000	        -23.50658033	         -0.08741191	         -4.60891964	         -4.63510087	         29.21238767	          0.10062264	         65.13059503	         41.63001062	        -20.83231539	
          5.12600000	        -23.53750935	         -0.19723763	         -4.83545165	         -4.66379103	         28.93144892	          0.19828214	         64.90840123	         41.40644449	        -20.72182855	
          5.13200000	        -23.56727065	         -0.30657913	         -5.05715401	         -4.69234947	         28.65372409	          0.29545348	         64.68265435	         41.18242558	        -20.60624575	
          5.13800000	        -23.59579595	         -0.41529718	         -5.27415058	         -4.72063314	         28.37895331	          0.39213627	         64.45340867	         40.95784234	        -20.48485833	
          5.14400000	        -23.62311230	         -0.52325198	         -5.48673680	         -4.74850068	         28.10686744	          0.48833252	         64.22070627	         40.73259075	        -20.35697630	
          5.15000000	        -23.64932078	         -0.63030753	         -5.69533765	         -4.77581532	         27.83719262	          0.58404686	         63.98457468	         40.50657583	        -20.22193823	
          5.15600000	        -23.67457551	         -0.73633573	         -5.90046625	         -4.80244758	         27.56965495	          0.67928685	         63.74502471	         40.27971292	        -20.07912075	
          5.16200000	        -23.69906385	         -0.84122023	         -6.10268475	         -4.82827796	         27.30398541	          0.77406295	         63.50204855	         40.05192889	        -19.92794781	
          5.16800000	        -23.72298844	         -0.94485981	         -6.30256841	         -4.85319943	         27.03992482	          0.86838851	         63.25561821	         39.82316314	        -19.76789925	
          5.17400000	        -23.74655132	         -1.04717126	         -6.50067369	         -4.87711983	         26.77722895	          0.96227953	         63.00568427	         39.59336841	        -19.59851874	
          5.18000000	        -23.76994054	         -1.14809189	         -6.69751080	         -4.89996407	         26.51567350	          1.05575434	         62.75217507	         39.36251130	        -19.41942087	
          5.18600000	        -23.79331923	         -1.24758140	         -6.89352095	         -4.92167605	         26.25505916	          1.14883307	         62.49499637	         39.13057254	        -19.23029722	
          5.19200000	        -23.81681721	         -1.34562331	         -7.08905840	         -4.94222042	         25.99521626	          1.24153713	         62.23403152	         38.89754703	        -19.03092140	
